<svg width="28" height="28" viewBox="0 0 28 28" fill="none" xmlns="http://www.w3.org/2000/svg">
<path fill-rule="evenodd" clip-rule="evenodd" d="M28 26.301L19.7385 18.0321C21.2551 16.1365 22.1667 13.7231 22.1667 11.0979C22.1667 4.96566 17.2011 8.4e-05 11.0834 8.4e-05C4.95832 8.4e-05 2.8e-05 4.97291 2.8e-05 11.0979C2.8e-05 17.223 4.96563 22.1958 11.0834 22.1958C13.7229 22.1958 16.1438 21.2699 18.0469 19.7312L26.301 28L28 26.301ZM4.65164 17.5431C2.93331 15.8247 1.99058 13.5382 1.99058 11.1045C1.99058 8.67112 2.94003 6.38456 4.65164 4.6662C6.36308 2.94804 8.65634 1.99198 11.0834 1.99198C13.5104 1.99198 15.7969 2.94123 17.5151 4.65959C19.2334 6.37776 20.1761 8.66429 20.1761 11.0979C20.1761 13.5316 19.2267 15.8179 17.5151 17.5363C15.7969 19.2545 13.5104 20.2041 11.0834 20.2041C8.65634 20.2107 6.3698 19.2613 4.65164 17.5431Z" fill="white"/>
</svg>
